<svg xmlns="http://www.w3.org/2000/svg" xmlns:xlink="http://www.w3.org/1999/xlink" width="22.002" height="22" viewBox="0 0 22.002 22"><defs><style>.a,.c{fill:#fff;}.b{clip-path:url(#a);}.c{fill-rule:evenodd;}</style><clipPath id="a"><path class="a" d="M0-71.292H22v22H0Z" transform="translate(0 71.292)"/></clipPath></defs><g transform="translate(0 71.292)"><g class="b" transform="translate(0 -71.292)"><g transform="translate(0 0)"><path class="c" d="M0-21.364a2.229,2.229,0,0,1,1.637-2.283Q8.071-26.261,14.5-28.9q2.157-.881,4.314-1.761a2.17,2.17,0,0,1,2.567.4,2.176,2.176,0,0,1,.371,2.572q-3.545,8.62-7.092,17.239A2.156,2.156,0,0,1,12.484-8.9a2.155,2.155,0,0,1-2.068-1.683c-.491-1.41-.952-2.831-1.441-4.243-.208-.6-.236-1.165.455-1.42.729-.268,1.025.266,1.225.835.475,1.353.932,2.712,1.4,4.066.1.274.157.634.54.617.331-.014.368-.362.464-.6q3.438-8.325,6.862-16.655c.113-.274.3-.58.081-.845-.279-.337-.614-.073-.9.044q-8.3,3.387-16.587,6.792c-.264.108-.652.152-.658.518-.007.433.426.449.715.552,1.436.509,2.886.979,4.315,1.5a1.145,1.145,0,0,0,1.292-.26c1.941-1.684,3.909-3.336,5.861-5.007,1.051-.9,1.668-1.09,2.053-.523.67.987-.26,1.382-.808,1.851-2.18,1.864-4.4,3.687-6.577,5.549a1.5,1.5,0,0,1-1.644.3c-1.8-.643-3.618-1.236-5.42-1.873C.474-19.786-.01-20.456,0-21.364" transform="translate(0 30.899)"/></g></g></g></svg>