<svg xmlns="http://www.w3.org/2000/svg" xmlns:xlink="http://www.w3.org/1999/xlink" width="226.149" height="185.973" viewBox="0 0 226.149 185.973"><defs><style>.a{fill:url(#a);}.b{fill:url(#b);}.c{fill:url(#c);}.d{fill:url(#d);}.e{fill:url(#e);}.f{fill:url(#f);}.g{fill:url(#g);}.h{fill:url(#h);}.i{fill:url(#i);}.j{fill:url(#j);}.k{fill:url(#m);}.l{fill:url(#n);}.m{fill:url(#o);}.n{fill:url(#p);}.o{fill:url(#r);}.p{fill:url(#s);}.q{fill:url(#u);}.r{fill:url(#v);}.s{fill:url(#w);}.t{fill:url(#x);}.u{fill:url(#z);}.v{fill:url(#aa);}.w{fill:url(#ab);}.x{fill:url(#ac);}.y{fill:#9dc1ba;}.z{fill:#fefbbb;}</style><linearGradient id="a" y1="0.5" x2="1" y2="0.5" gradientUnits="objectBoundingBox"><stop offset="0" stop-color="#abecd6"/><stop offset="0.231" stop-color="#d4ecb4"/><stop offset="0.425" stop-color="#f0ec9e"/><stop offset="0.536" stop-color="#fbed96"/><stop offset="0.626" stop-color="#f4ec9b"/><stop offset="0.752" stop-color="#e2eca9"/><stop offset="0.898" stop-color="#c4ecc1"/><stop offset="1" stop-color="#abecd6"/></linearGradient><linearGradient id="b" x1="0" y1="0.5" x2="1" y2="0.5" xlink:href="#a"/><linearGradient id="c" x1="0" y1="0.5" x2="1" y2="0.5" xlink:href="#a"/><linearGradient id="d" x1="-0.001" y1="0.5" x2="1" y2="0.5" xlink:href="#a"/><linearGradient id="e" x1="0" y1="0.5" x2="1" y2="0.5" xlink:href="#a"/><linearGradient id="f" x1="0.001" y1="0.498" x2="1.001" y2="0.498" xlink:href="#a"/><linearGradient id="g" x1="-0.001" y1="0.499" x2="1.002" y2="0.499" xlink:href="#a"/><linearGradient id="h" x1="0" y1="0.5" x2="1" y2="0.5" xlink:href="#a"/><linearGradient id="i" x1="0" y1="0.5" x2="1" y2="0.5" xlink:href="#a"/><linearGradient id="j" x1="0" y1="0.5" x2="1" y2="0.5" xlink:href="#a"/><linearGradient id="m" x1="0.003" y1="0.502" x2="1.001" y2="0.502" xlink:href="#a"/><linearGradient id="n" x1="0" y1="0.5" x2="1.001" y2="0.5" xlink:href="#a"/><linearGradient id="o" x1="0" y1="0.5" x2="1.001" y2="0.5" xlink:href="#a"/><linearGradient id="p" x1="0" y1="0.5" x2="1" y2="0.5" xlink:href="#a"/><linearGradient id="r" x1="0" y1="0.5" x2="1" y2="0.5" xlink:href="#a"/><linearGradient id="s" x1="0" y1="0.5" x2="1" y2="0.5" xlink:href="#a"/><linearGradient id="u" x1="0.001" y1="0.5" x2="0.999" y2="0.5" xlink:href="#a"/><linearGradient id="v" x1="0.003" y1="0.501" x2="1.001" y2="0.501" xlink:href="#a"/><linearGradient id="w" x1="0" y1="0.5" x2="1" y2="0.5" xlink:href="#a"/><linearGradient id="x" x1="0" y1="0.504" x2="1" y2="0.504" xlink:href="#a"/><linearGradient id="z" x1="0" y1="0.495" x2="1" y2="0.495" xlink:href="#a"/><linearGradient id="aa" x1="-0.001" y1="0.5" x2="1.001" y2="0.5" xlink:href="#a"/><linearGradient id="ab" x1="0.001" y1="0.511" x2="1.001" y2="0.511" xlink:href="#a"/><linearGradient id="ac" x1="0" y1="0.5" x2="1" y2="0.5" xlink:href="#a"/></defs><g transform="translate(-150.96 -51.267)"><g transform="translate(173.649 51.267)"><path class="a" d="M340.43,275.264c.338-.123.674-.251,1.01-.378C341.1,275.014,340.768,275.142,340.43,275.264Z" transform="translate(-220.906 -107.042)"/><path class="b" d="M251.7,267.939c.236.134.472.268.71.4C252.175,268.207,251.939,268.073,251.7,267.939Z" transform="translate(-198.776 -105.309)"/><path class="c" d="M245.427,264.1c.11.073.219.146.33.218C245.646,264.25,245.537,264.177,245.427,264.1Z" transform="translate(-197.211 -104.353)"/><path class="d" d="M249.525,266.675c.214.128.428.257.643.383C249.953,266.932,249.739,266.8,249.525,266.675Z" transform="translate(-198.233 -104.994)"/><path class="e" d="M343.007,274.334c.206-.08.41-.165.615-.248C343.417,274.169,343.213,274.253,343.007,274.334Z" transform="translate(-221.549 -106.843)"/><path class="f" d="M345.556,273.351l.183-.08Z" transform="translate(-222.185 -106.639)"/><path class="g" d="M243.5,262.8l.095.067Z" transform="translate(-196.729 -104.028)"/><path class="h" d="M247.432,265.395c.173.108.345.218.518.325C247.777,265.613,247.6,265.5,247.432,265.395Z" transform="translate(-197.711 -104.675)"/><g transform="translate(93.445 12.569)"><path class="i" d="M305.686,132.354l.456-2.425L317.9,68.013h1.785l1.948.486L309.567,132.03Z" transform="translate(-305.686 -68.013)"/></g><path class="j" d="M253.982,269.189c.233.124.465.249.7.371C254.447,269.438,254.215,269.313,253.982,269.189Z" transform="translate(-199.344 -105.621)"/><g transform="translate(75.202 112.402)"><path class="i" d="M285.112,262.05h-1.784l-1.948-.486,11.432-60.19,3.887-.354-.46,2.444Z" transform="translate(-281.38 -201.02)"/></g><path class="i" d="M193.09,132.232c.158-1.044.33-2.089.528-3.132A80.782,80.782,0,0,1,227.74,77.06l.041-.026,0,0a81.413,81.413,0,0,1,123.563,43.631l11.867-.868a92.988,92.988,0,0,0-181.067,7.111v.007q-.584,3.078-.958,6.191Z" transform="translate(-181.188 -51.267)"/><path class="k" d="M261.569,272.853l.125.055Z" transform="translate(-201.237 -106.535)"/><path class="l" d="M256.372,270.423c.2.1.406.2.61.3C256.778,270.628,256.575,270.525,256.372,270.423Z" transform="translate(-199.94 -105.929)"/><path class="m" d="M258.9,271.645c.14.065.281.133.421.2C259.176,271.778,259.035,271.71,258.9,271.645Z" transform="translate(-200.57 -106.234)"/><path class="n" d="M384.68,244.65c.307-.354.613-.708.914-1.067C385.294,243.942,384.987,244.3,384.68,244.65Z" transform="translate(-231.943 -99.235)"/><path class="i" d="M387.644,235.388a78.95,78.95,0,0,0,10.865-18.227A79.575,79.575,0,0,1,387.644,235.388Z" transform="translate(-232.682 -92.644)"/><path class="o" d="M337.834,276.137q.69-.231,1.376-.477C338.751,275.822,338.293,275.984,337.834,276.137Z" transform="translate(-220.259 -107.235)"/><path class="p" d="M386.168,242.808q.557-.669,1.1-1.349Q386.727,242.139,386.168,242.808Z" transform="translate(-232.314 -98.705)"/><path class="i" d="M354.522,195.342A80.772,80.772,0,0,1,320.48,247.17l-.05.035a81.311,81.311,0,0,1-112.97-21.46,81.75,81.75,0,0,1-9.583-18.951l-11.989.877a92.989,92.989,0,0,0,180.119-10.347v-.006c.179-.947.339-1.9.49-2.852Z" transform="translate(-182.36 -86.984)"/><path class="q" d="M381.673,248.169c.141-.149.284-.3.424-.447C381.958,247.872,381.814,248.019,381.673,248.169Z" transform="translate(-231.193 -100.267)"/><path class="r" d="M380.288,249.718l-.12.12Z" transform="translate(-230.818 -100.765)"/><path class="s" d="M383.18,246.437c.23-.253.461-.507.688-.763C383.642,245.93,383.41,246.183,383.18,246.437Z" transform="translate(-231.569 -99.756)"/><path class="t" d="M307.356,281.667q.887-.025,1.773-.071Q308.243,281.642,307.356,281.667Z" transform="translate(-212.657 -108.716)"/><path class="i" d="M309.788,280.3a78.93,78.93,0,0,0,20.8-3.9A79.563,79.563,0,0,1,309.788,280.3Z" transform="translate(-213.264 -107.421)"/><path class="u" d="M306.157,281.706c-.407.009-.814.017-1.22.02C305.344,281.723,305.751,281.714,306.157,281.706Z" transform="translate(-212.054 -108.743)"/><path class="v" d="M403.61,213.275c.077-.2.155-.4.23-.6C403.765,212.877,403.687,213.076,403.61,213.275Z" transform="translate(-236.665 -91.526)"/><path class="w" d="M302.523,281.718c.164,0,.326,0,.489,0C302.85,281.721,302.687,281.721,302.523,281.718Z" transform="translate(-211.452 -108.746)"/><path class="x" d="M402.366,216.162c.172-.411.344-.822.51-1.236C402.71,215.34,402.539,215.751,402.366,216.162Z" transform="translate(-236.354 -92.087)"/></g><g transform="translate(150.96 125.45)"><path class="y" d="M158.855,189.225l-1.9.171-.79,9.495-5.205.47,2.162-25.707,8.207-.742a10.49,10.49,0,0,1,3.234.187,7.718,7.718,0,0,1,2.709,1.154A6.54,6.54,0,0,1,169.2,176.3a6.668,6.668,0,0,1,.89,2.869,7.917,7.917,0,0,1-1.3,5.27,10.02,10.02,0,0,1-4.824,3.634l7.63,9.424-6.155.555Zm.094-4.031a8.279,8.279,0,0,0,4.547-1.623,3.99,3.99,0,0,0,1.486-3.694,2.835,2.835,0,0,0-1.308-2.384,4.615,4.615,0,0,0-2.785-.519l-2.85.257-.685,8.106Z" transform="translate(-150.96 -155.779)"/><path class="y" d="M198.924,185.908a13.306,13.306,0,0,1-.321,4.319,11.612,11.612,0,0,1-1.72,3.91,10.125,10.125,0,0,1-3.113,2.923,10.282,10.282,0,0,1-4.5,1.4,8.532,8.532,0,0,1-3.309-.294,7.061,7.061,0,0,1-2.563-1.4,6.869,6.869,0,0,1-1.723-2.3,8.846,8.846,0,0,1-.788-2.993,14.375,14.375,0,0,1,.3-4.7,10.76,10.76,0,0,1,1.744-3.855,9.565,9.565,0,0,1,3.075-2.709,10.61,10.61,0,0,1,4.3-1.27,9.009,9.009,0,0,1,3.423.285,7.062,7.062,0,0,1,2.623,1.41,7.165,7.165,0,0,1,1.763,2.311A8.44,8.44,0,0,1,198.924,185.908Zm-9.5,8.634a3.815,3.815,0,0,0,2.188-.887,5.519,5.519,0,0,0,1.429-1.91,9.1,9.1,0,0,0,.727-2.5,11.01,11.01,0,0,0,.089-2.614,6.09,6.09,0,0,0-.325-1.483,3.975,3.975,0,0,0-.7-1.258,2.97,2.97,0,0,0-1.1-.82,3.09,3.09,0,0,0-1.524-.207,3.51,3.51,0,0,0-2.058.856,5.6,5.6,0,0,0-1.374,1.886,9.032,9.032,0,0,0-.724,2.535,11.961,11.961,0,0,0-.074,2.766,5.008,5.008,0,0,0,.988,2.706A2.615,2.615,0,0,0,189.423,194.542Z" transform="translate(-158.407 -157.285)"/><path class="y" d="M226.407,175.982l-1.6,18.8-4.863.439.407-4.825q-.442,1.037-.986,2.023a8.822,8.822,0,0,1-1.259,1.761,7.059,7.059,0,0,1-1.587,1.293,4.544,4.544,0,0,1-1.936.615,4.718,4.718,0,0,1-2.463-.333,4.2,4.2,0,0,1-1.613-1.329,6.043,6.043,0,0,1-.947-2,13.361,13.361,0,0,1-.423-2.355,10.464,10.464,0,0,1-.032-1.2c.011-.448.035-.889.072-1.329l.852-10.074,5.092-.46-.874,10.268c-.019.36-.032.712-.039,1.057a8.5,8.5,0,0,0,.028.936,5.387,5.387,0,0,0,.506,2,1.28,1.28,0,0,0,1.381.661,2.15,2.15,0,0,0,1.317-.693,8.927,8.927,0,0,0,1.2-1.526,16.322,16.322,0,0,0,1.051-1.934q.482-1.039.82-1.951l.8-9.38Z" transform="translate(-165.462 -156.557)"/><path class="y" d="M236.61,191.226l2.291-27.251,5.09-.459L241.7,190.766Z" transform="translate(-172.323 -153.447)"/><path class="y" d="M259.052,172.748a7.291,7.291,0,0,1,2.408.148,5.1,5.1,0,0,1,1.837.83,4.336,4.336,0,0,1,1.217,1.384,4.411,4.411,0,0,1,.543,1.771,5.181,5.181,0,0,1-.681,3.279,7.6,7.6,0,0,1-2.334,2.356,12.8,12.8,0,0,1-3.441,1.555,22.833,22.833,0,0,1-4.007.8c-.009.179-.013.351-.011.518s.011.324.024.476a3.578,3.578,0,0,0,.776,2.018,2.58,2.58,0,0,0,2.338.65,10.243,10.243,0,0,0,2.589-.6,11,11,0,0,0,2.631-1.405l1.252,3.258a13.287,13.287,0,0,1-3.123,1.681,13.68,13.68,0,0,1-3.7.85,8.493,8.493,0,0,1-3.2-.246,5.787,5.787,0,0,1-2.319-1.285,6.14,6.14,0,0,1-1.474-2.127,8.97,8.97,0,0,1-.669-2.735,15.453,15.453,0,0,1,.293-4.815,11.674,11.674,0,0,1,1.738-4.084,10.147,10.147,0,0,1,3.069-2.919A9.6,9.6,0,0,1,259.052,172.748Zm-.4,3.676a2.848,2.848,0,0,0-1.39.508,4.77,4.77,0,0,0-1.124,1.118,6,6,0,0,0-.8,1.527,10.069,10.069,0,0,0-.455,1.746,15.353,15.353,0,0,0,2.108-.42,7.987,7.987,0,0,0,1.848-.742,4.04,4.04,0,0,0,1.263-1.073,1.977,1.977,0,0,0,.39-1.413Q260.366,176.27,258.656,176.423Z" transform="translate(-175.573 -155.741)"/><path class="y" d="M272.546,170.41l3.23-.292.428-5.018,5.092-.459-.429,5.018,5.586-.5-.324,4.051-5.623.508-.716,8.615a3.03,3.03,0,0,0,.249,1.7q.349.694,1.565.584a8.037,8.037,0,0,0,1.73-.355,16.423,16.423,0,0,0,1.666-.641l.547,3.513a11.222,11.222,0,0,1-2.187,1.021,10.911,10.911,0,0,1-2.65.564,5.69,5.69,0,0,1-4.341-.986,5.029,5.029,0,0,1-1.66-3.528,7.7,7.7,0,0,1-.023-.9c.01-.319.026-.634.049-.942l.679-8.183-3.192.288Z" transform="translate(-181.205 -153.728)"/><path class="y" d="M292.643,168.6l3.23-.29.429-5.018,5.091-.459-.428,5.017,5.585-.5-.323,4.052-5.624.507-.716,8.615a3.034,3.034,0,0,0,.249,1.7q.349.694,1.566.583a7.918,7.918,0,0,0,1.73-.354,16.7,16.7,0,0,0,1.666-.641l.547,3.513a11.311,11.311,0,0,1-2.187,1.02,10.949,10.949,0,0,1-2.65.565,5.691,5.691,0,0,1-4.341-.987,5.029,5.029,0,0,1-1.66-3.528,7.535,7.535,0,0,1-.023-.9q.015-.48.049-.943l.679-8.182-3.191.288Z" transform="translate(-186.218 -153.276)"/><path class="y" d="M322.835,166.991a7.291,7.291,0,0,1,2.408.148,5.1,5.1,0,0,1,1.837.83,4.326,4.326,0,0,1,1.216,1.384,4.411,4.411,0,0,1,.543,1.77,5.193,5.193,0,0,1-.68,3.279,7.611,7.611,0,0,1-2.336,2.356,12.753,12.753,0,0,1-3.441,1.554,22.767,22.767,0,0,1-4.007.8c-.009.179-.013.351-.011.518s.01.324.024.476a3.568,3.568,0,0,0,.776,2.018,2.581,2.581,0,0,0,2.337.652,10.287,10.287,0,0,0,2.59-.6,11.043,11.043,0,0,0,2.631-1.405l1.252,3.257a13.27,13.27,0,0,1-3.125,1.681,13.677,13.677,0,0,1-3.7.851,8.523,8.523,0,0,1-3.2-.247,5.8,5.8,0,0,1-2.319-1.284,6.162,6.162,0,0,1-1.475-2.128,9.014,9.014,0,0,1-.668-2.735,15.454,15.454,0,0,1,.293-4.815,11.652,11.652,0,0,1,1.739-4.083,10.13,10.13,0,0,1,3.068-2.92A9.591,9.591,0,0,1,322.835,166.991Zm-.4,3.676a2.842,2.842,0,0,0-1.391.509,4.751,4.751,0,0,0-1.124,1.117,6,6,0,0,0-.8,1.527,10,10,0,0,0-.456,1.746,15.238,15.238,0,0,0,2.108-.42,8.068,8.068,0,0,0,1.848-.742,4.026,4.026,0,0,0,1.262-1.072,1.984,1.984,0,0,0,.39-1.413Q324.149,170.513,322.439,170.666Z" transform="translate(-191.481 -154.305)"/><path class="y" d="M360.944,154.188a21.853,21.853,0,0,1,3.926-.01,14.7,14.7,0,0,1,3.694.815l-.631,4.041a18.167,18.167,0,0,0-3.012-.686,14.275,14.275,0,0,0-3.222-.053,9.568,9.568,0,0,0-3.844,1.132,8.775,8.775,0,0,0-2.8,2.456,9.667,9.667,0,0,0-1.615,3.555,13.711,13.711,0,0,0-.27,4.429,7.212,7.212,0,0,0,2.367,5.226,7.5,7.5,0,0,0,5.579,1.335,19.179,19.179,0,0,0,2.738-.439,13.65,13.65,0,0,0,2.544-.88l.844,3.831a14.8,14.8,0,0,1-3.021,1.115,21.924,21.924,0,0,1-3.453.58,13.913,13.913,0,0,1-5.208-.411,10.593,10.593,0,0,1-3.9-2.042,9.715,9.715,0,0,1-2.541-3.332,12.633,12.633,0,0,1-1.133-4.284,18.2,18.2,0,0,1,.413-6.033,13.883,13.883,0,0,1,2.342-5.038,12.854,12.854,0,0,1,4.2-3.6A15.246,15.246,0,0,1,360.944,154.188Z" transform="translate(-200.08 -151.098)"/><path class="y" d="M378.6,178.41l2.29-27.251,5.091-.459-.974,11.7a8.722,8.722,0,0,1,2.091-2.717,5.685,5.685,0,0,1,3.361-1.377,4.727,4.727,0,0,1,2.248.295,4.537,4.537,0,0,1,1.7,1.207,6.168,6.168,0,0,1,1.135,1.966,9.853,9.853,0,0,1,.555,2.535q.048.533.05,1.2t-.052,1.327l-.853,10.075-5.091.459.87-10.305q.028-.539.041-1.038a8.111,8.111,0,0,0-.026-.917,4.161,4.161,0,0,0-.62-1.994,1.517,1.517,0,0,0-1.5-.65,2.7,2.7,0,0,0-1.3.48,5.792,5.792,0,0,0-1.167,1.083,10.729,10.729,0,0,0-1.034,1.491,12.489,12.489,0,0,0-.823,1.7l-.908,10.731Z" transform="translate(-207.739 -150.251)"/><path class="y" d="M422.844,176.977l-4.864.438.408-5.246a18.05,18.05,0,0,1-.98,2.08,11.35,11.35,0,0,1-1.321,1.919,7.3,7.3,0,0,1-1.669,1.454,4.446,4.446,0,0,1-1.988.677,4.771,4.771,0,0,1-2.425-.336,4.344,4.344,0,0,1-1.693-1.361,6.868,6.868,0,0,1-1.05-2.089,12.027,12.027,0,0,1-.5-2.559,16.13,16.13,0,0,1,.269-4.871,11.8,11.8,0,0,1,1.731-4.159,9.925,9.925,0,0,1,3.2-3.008,10.792,10.792,0,0,1,4.622-1.414,18.661,18.661,0,0,1,4.01.079,17.524,17.524,0,0,1,3.737.869Zm-9.141-2.815a2.437,2.437,0,0,0,1.533-.844,10.148,10.148,0,0,0,1.4-1.921,17.187,17.187,0,0,0,1.187-2.55q.524-1.4.9-2.736l.293-3.537a6.131,6.131,0,0,0-2.237-.181,4.1,4.1,0,0,0-2.346.957,6.611,6.611,0,0,0-1.612,2.092,9.489,9.489,0,0,0-.876,2.809,12.748,12.748,0,0,0-.1,3.14,6.99,6.99,0,0,0,.17,1.034,3.965,3.965,0,0,0,.331.906,1.789,1.789,0,0,0,.536.638A1.17,1.17,0,0,0,413.7,174.162Z" transform="translate(-214.744 -152.18)"/><path class="y" d="M433.623,155.871l3.23-.292.428-5.018,5.091-.459-.428,5.018,5.586-.5-.324,4.052-5.623.507-.716,8.615a3.023,3.023,0,0,0,.249,1.7q.348.694,1.565.584a8.019,8.019,0,0,0,1.731-.355,16.248,16.248,0,0,0,1.666-.642l.547,3.513a11.219,11.219,0,0,1-2.187,1.021,10.927,10.927,0,0,1-2.65.564,5.685,5.685,0,0,1-4.341-.986,5.027,5.027,0,0,1-1.66-3.528,7.414,7.414,0,0,1-.022-.9c.009-.319.025-.634.048-.942l.679-8.183-3.192.288Z" transform="translate(-221.381 -150.102)"/></g><g transform="translate(172.815 69.314)"><path class="y" d="M223.242,100.988l7.119,20.211L209.3,117.258Z" transform="translate(-187.366 -81.716)"/><path class="y" d="M200,112.252h0a18.5,18.5,0,0,0-2.84-36.886h0A18.5,18.5,0,1,0,200,112.252Z" transform="translate(-180.078 -75.311)"/><path class="z" d="M185.754,96.31a14.269,14.269,0,0,1,13.131-15.322h0a14.269,14.269,0,0,1,2.191,28.453h0A14.269,14.269,0,0,1,185.754,96.31Z" transform="translate(-181.483 -76.717)"/></g></g></svg>